<?xml version="1.0" encoding="utf-8"?>
<!-- Generator: Adobe Illustrator 24.3.0, SVG Export Plug-In . SVG Version: 6.00 Build 0)  -->
<svg version="1.1" id="Layer_1" xmlns="http://www.w3.org/2000/svg" xmlns:xlink="http://www.w3.org/1999/xlink" x="0px" y="0px"
	 viewBox="0 0 2000.34 2000.34" style="enable-background:new 0 0 2000.34 2000.34;" xml:space="preserve">
<style type="text/css">
	.st0{fill:none;stroke:url(#SVGID_1_);stroke-width:10;stroke-miterlimit:10;}
	.st1{fill:none;stroke:url(#SVGID_2_);stroke-width:10;stroke-miterlimit:10;}
	.st2{fill:none;stroke:url(#SVGID_3_);stroke-width:7;stroke-miterlimit:10;}
	.st3{fill:none;stroke:url(#SVGID_4_);stroke-width:7;stroke-miterlimit:10;}
	.st4{fill:none;stroke:url(#SVGID_5_);stroke-width:7;stroke-miterlimit:10;}
	.st5{fill:none;stroke:url(#SVGID_6_);stroke-width:10;stroke-miterlimit:10;}
	.st6{fill:url(#SVGID_7_);stroke:url(#SVGID_8_);stroke-width:8;stroke-miterlimit:10;}
	.st7{fill:url(#SVGID_9_);}
	.st8{fill:url(#SVGID_10_);}
	.st9{fill:url(#SVGID_11_);}
	.st10{fill:url(#SVGID_12_);}
	.st11{fill:url(#SVGID_13_);}
	.st12{fill:url(#SVGID_14_);}
	.st13{fill:url(#SVGID_15_);}
	.st14{fill:url(#SVGID_16_);}
	.st15{fill:url(#SVGID_17_);}
	.st16{fill:url(#SVGID_18_);}
	.st17{fill:url(#SVGID_19_);}
	.st18{fill:url(#SVGID_20_);}
	.st19{fill:url(#SVGID_21_);}
	.st20{fill:url(#SVGID_22_);}
	.st21{fill:url(#SVGID_23_);}
</style>
<g id="Layer_1_1_">
</g>
<g id="Layer_6">
</g>
<g id="Layer_5">
</g>
<g id="Layer_4">
</g>
<g id="Layer_7">
</g>
<g id="Layer_3">
</g>
<g>
	
		<linearGradient id="SVGID_1_" gradientUnits="userSpaceOnUse" x1="6.87" y1="-90.4243" x2="544.73" y2="-90.4243" gradientTransform="matrix(1 0 0 1 0 1002.6809)">
		<stop  offset="0" style="stop-color:#4457A6"/>
		<stop  offset="1" style="stop-color:#CB509D"/>
	</linearGradient>
	<polyline class="st0" points="337.05,1240.56 373.34,1229.24 380.84,1211.16 395.38,1174.38 414.19,1142.51 440.47,1109.32 
		463.14,1080.46 486.2,1045.92 505.65,1009.09 521.21,972.56 532.9,934.71 539.73,889.92 539.73,838.47 531.59,792.99 
		518.62,753.83 500.14,713.65 476.45,681.19 450.51,652.92 421.65,630.33 390.84,612.41 356.43,597.78 313.96,588.16 275.48,584.18 
		276.12,584.18 237.63,588.16 195.13,597.78 160.76,612.41 129.94,630.33 101.08,652.92 75.15,681.19 51.46,713.65 32.98,753.83 
		20.01,792.99 11.87,838.47 11.87,889.92 18.7,934.71 30.39,972.56 45.95,1009.09 65.4,1045.92 88.45,1080.46 111.13,1109.32 
		137.4,1142.51 156.22,1174.38 170.76,1211.16 179.74,1229.24 200.51,1236.32 213.27,1240.01 	"/>
	
		<linearGradient id="SVGID_2_" gradientUnits="userSpaceOnUse" x1="444.9759" y1="116.0619" x2="261.4919" y2="116.0619" gradientTransform="matrix(-1 0 0 1 629.0844 1002.6809)">
		<stop  offset="0" style="stop-color:#3B54A4"/>
		<stop  offset="1" style="stop-color:#843494"/>
	</linearGradient>
	<polyline class="st1" points="217.25,1241 208.99,1136.87 190.51,1006.51 217.25,1022.14 235.6,1006.51 257.6,1028.25 
		277.22,1005.91 299.6,1031.72 318.58,1005.91 334.31,1023.92 361.09,1006.34 342.61,1136.74 334.31,1240.87 	"/>
	
		<linearGradient id="SVGID_3_" gradientUnits="userSpaceOnUse" x1="179.1395" y1="278.0875" x2="372.5364" y2="278.0875" gradientTransform="matrix(1 0 0 1 0 1002.6809)">
		<stop  offset="0" style="stop-color:#3B54A4"/>
		<stop  offset="1" style="stop-color:#843494"/>
	</linearGradient>
	<polyline class="st2" points="180.48,1270.75 215.96,1285.46 274.87,1292.24 334.16,1285.46 371.11,1268.97 	"/>
	
		<linearGradient id="SVGID_4_" gradientUnits="userSpaceOnUse" x1="179.8971" y1="312.5379" x2="371.7029" y2="312.5379" gradientTransform="matrix(1 0 0 1 0 1002.6809)">
		<stop  offset="0" style="stop-color:#3B54A4"/>
		<stop  offset="1" style="stop-color:#843494"/>
	</linearGradient>
	<polyline class="st3" points="370.01,1300.38 333.06,1320.8 275.8,1329.58 218.54,1320.8 181.59,1300.38 	"/>
	
		<linearGradient id="SVGID_5_" gradientUnits="userSpaceOnUse" x1="179.7869" y1="350.129" x2="371.8131" y2="350.129" gradientTransform="matrix(1 0 0 1 0 1002.6809)">
		<stop  offset="0" style="stop-color:#3B54A4"/>
		<stop  offset="1" style="stop-color:#843494"/>
	</linearGradient>
	<polyline class="st4" points="181.59,1337.71 218.54,1359.92 275.8,1367.38 333.06,1359.92 370.01,1337.71 	"/>
	
		<linearGradient id="SVGID_6_" gradientUnits="userSpaceOnUse" x1="174.4" y1="319.7344" x2="377.19" y2="319.7344" gradientTransform="matrix(1 0 0 1 0 1002.6809)">
		<stop  offset="0" style="stop-color:#4457A6"/>
		<stop  offset="1" style="stop-color:#CB509D"/>
	</linearGradient>
	<polygon class="st5" points="372.19,1230.32 372.19,1366.07 336.64,1384.04 327.91,1400.1 314.3,1407.9 288.83,1416.16 
		262.77,1416.16 237.3,1407.9 223.65,1400.1 214.92,1384.04 179.4,1366.07 179.4,1230.32 216.36,1241 262.77,1243.92 
		288.83,1243.92 335.2,1241 	"/>
	
		<linearGradient id="SVGID_7_" gradientUnits="userSpaceOnUse" x1="78.73" y1="1184.3384" x2="472.8561" y2="1184.3384" gradientTransform="matrix(1 0 0 -1 0 2000)">
		<stop  offset="0" style="stop-color:#4457A6"/>
		<stop  offset="1" style="stop-color:#CB509D"/>
	</linearGradient>
	
		<linearGradient id="SVGID_8_" gradientUnits="userSpaceOnUse" x1="74.73" y1="1184.385" x2="476.8561" y2="1184.385" gradientTransform="matrix(1 0 0 -1 0 2000)">
		<stop  offset="0" style="stop-color:#4457A6"/>
		<stop  offset="1" style="stop-color:#CB509D"/>
	</linearGradient>
	<path class="st6" d="M328.1,660.07c5.09,3.92,9.82,8.35,15.27,11.71c21.02,13.03,42.25,25.76,63.47,38.48
		c1.58,0.97,3.82,1.17,5.75,1.17c3.72-0.05,6.62,2.95,6.77,6.87c0.05,2.14,0.41,4.48,1.43,6.31c11.66,20.67,23.41,41.28,35.33,61.84
		c1.12,1.88,3.21,3.46,5.14,4.58c3.72,2.09,4.63,5.24,2.8,9.06c-0.92,1.83-1.32,4.17-1.07,6.16c1.22,9.52,2.55,19.04,4.28,28.5
		c0.46,2.65,1.88,5.4,3.56,7.53c2.85,3.56,2.75,6.41-0.66,9.31c-2.29,1.93-4.63,4.02-6.31,6.46c-5.24,7.53-10.28,15.22-15.17,22.96
		c-0.81,1.32-0.36,3.36-0.76,5.04c-0.56,2.49-0.66,6.01-2.29,7.13c-1.58,1.12-5.45,0.71-7.33-0.56c-5.4-3.56-14.81-2.49-18.12,3.05
		c-3.87,6.41-7.43,12.98-11.05,19.55c-1.88,3.41-5.85,4.99-8.6,2.44c-3.56-3.31-7.79-2.9-11.86-3.46c-3.1-0.41-6.36-1.17-9.26-0.51
		c-3.97,0.92-8.65,2.09-11.3,4.84c-4.07,4.17-7.94,9.42-4.22,16.19c2.19,4.02,3.97,8.25,5.9,12.42c1.37,2.9,2.24,5.8,6.72,5.75
		c3.16-0.05,5.09,4.63,3.61,7.79c-1.53,3.26-4.43,4.89-7.69,3.26c-6.82-3.41-12.57,1.37-18.88,1.83c-0.76,0.05-1.27,2.09-2.04,3.1
		c-2.75,3.66-9.16,3.41-10.03-0.81c-1.27-6.57-6.62-9.06-10.69-12.73c-3.77-3.36-8.55-5.6-12.83-8.4c-0.92-0.61-2.19-1.48-2.34-2.39
		c-1.07-6.26-6.41-9.37-10.18-13.44c-7.99-8.7-16.34-17.1-24.64-25.5c-8.4-8.45-19.24-12.67-30.44-15.52
		c-3.26-0.81-7.89,1.17-11.05,3.21c-4.63,3-8.6,7.08-12.73,10.84c-0.97,0.92-1.53,2.34-2.04,3.66c-1.68,4.48-6.06,5.8-9.87,3
		c-1.78-1.27-3.77-2.55-5.85-3.16c-9.42-2.75-18.88-5.4-28.4-7.79c-1.99-0.51-4.28,0.61-6.41,0.41c-2.55-0.25-5.09-0.81-7.43-1.78
		c-2.19-0.92-3.87-3.26-6.06-3.77c-13.95-3.36-27.89-6.52-41.94-9.52c-2.04-0.41-4.33,0.56-6.52,0.51c-2.14,0-4.84,0.31-6.21-0.87
		c-1.43-1.17-1.78-3.87-2.19-6.01c-0.41-1.93,0.2-4.22-0.51-5.96c-5.8-14.56-11.91-29.01-17.76-43.57c-1.37-3.41-3-6.41-6.67-7.79
		c0-2.29,0-4.58,0-6.87c1.02-1.53,2.55-2.95,3.05-4.68c4.43-15.32,8.7-30.64,12.98-46.01c0.31-1.07,0.61-2.29,0.36-3.26
		c-1.73-7.13-1.37-7.84,5.34-10.08c0.76-0.25,1.53-0.66,2.09-1.22c10.74-11.81,21.38-23.72,32.17-35.48
		c1.17-1.27,3.1-2.04,4.84-2.65c1.63-0.61,3.61-0.46,5.14-1.17c29.88-13.69,59.81-27.23,89.43-41.48c5.29-2.55,9.47-6.36,15.52-2.9
		c0.36,0.2,0.97,0,1.48-0.05c21.63-0.87,43.27-1.68,64.9-2.8c2.44-0.1,4.84-1.93,7.23-2.95
		C324.85,660.07,326.48,660.07,328.1,660.07z M204.52,734.69c-13.95,14.35-27.49,28.25-40.98,42.1c-2.7,2.8-3.26,10.84-0.92,13.85
		c9.42,12.22,18.88,24.38,28.35,36.55c2.95,3.82,4.12,3.77,6.77-0.36c8.55-13.59,17.41-26.98,25.35-40.92
		c1.93-3.41,2.49-9.16,0.92-12.67C218.21,760.34,211.29,747.87,204.52,734.69z M280.36,841.94c1.07-0.87,1.68-1.22,1.99-1.73
		c6.11-9.31,12.37-18.53,18.17-28c0.97-1.63,0.81-4.99-0.25-6.62c-8.96-13.69-18.22-27.18-27.54-40.67
		c-2.19-3.16-5.09-3.92-8.81-1.73c-8.04,4.73-16.29,9.11-24.43,13.69c-4.58,2.55-5.09,4.78-2.04,8.86
		c9.11,12.01,18.17,24.08,27.28,36.04C269.82,828.35,274.91,834.91,280.36,841.94z M337.57,724.2c-0.76,2.04-1.27,3.31-1.68,4.63
		c-7.74,23.36-15.47,46.73-23.21,70.04c-2.19,6.52-0.81,8.25,6.11,7.79c9.62-0.66,19.29-1.22,28.91-1.93
		c8.25-0.61,16.44-1.37,25.3-2.14C361.14,776.33,349.53,750.62,337.57,724.2z M213.93,901.95c0.36-0.31,0.71-0.66,1.02-0.97
		c-0.36-1.22-0.61-2.44-1.02-3.61c-5.7-16.49-11.35-32.98-17.31-49.42c-1.02-2.8-3.46-5.09-5.14-7.69
		c-0.87-1.32-1.48-2.85-2.14-4.28c-0.81-1.99-1.12-4.38-2.39-6.01c-8.3-10.99-16.75-21.84-25.2-32.73c-0.81-1.07-1.83-1.99-2.75-3
		c-0.41,2.85,0.05,5.24,0.41,7.64c3.05,21.02,6.06,42.04,9.31,63.02c0.31,1.99,1.78,4.17,3.41,5.45
		c7.43,5.96,15.07,11.61,22.65,17.36C201.16,892.43,207.52,897.17,213.93,901.95z M276.39,844.53
		c-15.73-20.67-30.54-40.11-45.71-60.01c-1.37,1.48-2.39,2.29-3.05,3.31c-8.7,13.79-17.36,27.69-26.06,41.48
		c-2.29,3.61-0.81,4.73,2.95,5.24c17.82,2.44,35.53,5.09,53.34,7.64C263.56,843.06,269.37,843.67,276.39,844.53z M305.76,805.03
		c9.37-28.35,18.27-55.33,27.49-83.17c-18.43,11.15-36.09,21.68-53.6,32.47c-3,1.83-4.48,5.55-2.39,8.65
		C286.21,776.68,295.53,790.12,305.76,805.03z M310.09,814.76c-0.41,0.2-0.76,0.36-1.17,0.56c1.12,10.69,2.24,21.43,3.41,32.12
		c1.37,12.83,2.75,25.7,4.33,38.53c0.56,4.58,1.83,5.04,5.75,2.7c11.76-7.08,23.57-14.2,35.27-21.38c4.22-2.6,4.48-4.58,0.87-7.89
		c-10.59-9.82-21.28-19.55-31.91-29.37C321.13,824.94,315.63,819.85,310.09,814.76z M238.47,674.12c-0.36-0.51-0.71-1.02-1.07-1.48
		c-30.59,14.1-61.13,28.15-91.72,42.25c17.46,4.12,34.56,7.53,51.77,9.98c4.33,0.61,9.47-1.48,12.32-5.8
		c9.16-13.95,18.17-28,27.18-42.04C237.55,676.05,237.96,675.08,238.47,674.12z M250.48,669.28c-0.1,0.66-0.2,1.27-0.31,1.93
		c27.64,13.39,55.28,26.82,83.83,40.67c-3.1-13.34-5.55-25.6-9.01-37.56c-0.76-2.65-5.04-6.06-7.74-6.11
		c-14.1-0.2-28.2,0.71-42.3,1.02C266.77,669.43,258.63,669.28,250.48,669.28z M154.63,777.34c0.51,0.15,1.02,0.25,1.58,0.41
		c14.86-15.37,29.78-30.74,45.71-47.19c-20.41-3.56-39.04-6.87-58.84-10.33C147.1,740.14,150.87,758.77,154.63,777.34z
		 M324.29,713.46c-0.05-0.36-0.1-0.76-0.1-1.12c-25.45-12.32-50.9-24.69-77.27-37.46c5.45,15.83,10.43,30.44,15.63,45.45
		C283.21,717.99,303.77,715.7,324.29,713.46z M313.5,811.55c17.56,16.14,34,31.25,50.95,46.83c2.75-17.36,5.29-33.75,7.99-50.8
		C353.1,808.9,334.01,810.18,313.5,811.55z M402.67,714.23c0.05-0.31,0.15-0.61,0.2-0.87c-24.03-14.56-48.1-29.12-72.43-43.88
		c-0.41,1.22-0.92,1.83-0.81,2.34c2.75,12.52,5.6,25.04,8.45,37.56c0.15,0.66,0.76,1.53,1.43,1.78c4.07,1.73,7.99,3.51,12.83,3.26
		c9.82-0.51,19.65-0.15,29.52-0.15C388.73,714.23,395.7,714.23,402.67,714.23z M86.22,812.21c0.51,0.41,0.97,0.81,1.48,1.22
		c19.9-10.49,39.75-20.97,60.17-31.66c-13.59-6.72-26.47-13.13-39.35-19.49c-4.53-2.24-8.04-0.71-9.42,4.17
		c-2.95,10.33-5.8,20.67-8.65,31C89.02,802.39,87.6,807.33,86.22,812.21z M343.07,723.34c0.1,1.12,0,1.63,0.15,1.99
		c10.74,23.77,21.48,47.59,32.22,71.31c0.41,0.92,1.37,1.58,2.09,2.34c0.81-0.87,2.04-1.58,2.44-2.6
		c4.68-12.01,9.37-23.97,13.74-36.09c0.41-1.17-0.71-3.66-1.88-4.48c-11.2-7.69-22.5-15.17-33.8-22.65
		C353.2,729.96,348.36,726.8,343.07,723.34z M274.91,849.17c-24.79-3.46-48.61-6.77-72.38-10.13
		c11.15,13.59,22.75,26.21,34.41,38.79c2.85,3.1,7.94,3.31,10.84,0.25C256.59,868.86,265.29,859.5,274.91,849.17z M166.7,891.31
		c0.36-1.02,0.81-1.63,0.76-2.19c-0.71-5.7-1.43-11.35-2.44-17c-0.2-1.12-1.32-2.24-2.29-2.95c-9.87-7.58-19.9-14.96-29.73-22.6
		c-2.34-1.78-3.72-1.53-4.99,0.92c-4.43,8.76-8.96,17.41-13.23,26.21c-1.37,2.85-0.46,5.4,2.95,6.31c3,0.76,6.06,1.43,9.06,2.14
		C140.03,885.25,153.26,888.26,166.7,891.31z M367.81,903.53c-1.12-11.4-2.04-20.72-2.95-29.98c-0.25-2.49-1.07-4.48-3.97-2.75
		c-12.67,7.53-25.25,15.17-37.82,22.85c-2.14,1.32-2.44,2.9-0.25,4.63c9.57,7.43,19.09,14.96,28.76,22.35
		c2.7,2.09,8.96,1.02,10.38-2.09C364.45,913.1,366.33,907.35,367.81,903.53z M450.62,795.97c0.1-0.36,0.2-0.66,0.36-1.02
		c-17.26-11.45-34.51-22.96-52.22-34.71c-5.04,13.34-9.93,26.21-15.17,40.01C406.59,798.82,428.58,797.4,450.62,795.97z
		 M376.82,810.53c-1.12,6.77-2.14,12.52-3,18.27c-1.43,9.16-2.85,18.32-4.22,27.49c-0.51,3.51,0.1,5.45,4.43,4.17
		c2.95-0.87,6.11-0.97,9.16-1.43c9.82-1.58,19.65-3.16,30.08-4.89c-10.64-14.1-20.82-27.69-31.2-41.13
		C380.99,811.8,378.75,811.45,376.82,810.53z M150,777.6c-3.92-18.94-7.58-36.8-11.5-55.79c-11.91,11.35-22.8,21.68-34.61,32.98
		C119.72,762.63,134.38,769.91,150,777.6z M385.98,804.88c-0.1,0.36-0.15,0.66-0.25,1.02c18.27,9.16,36.6,18.32,55.18,27.64
		c4.28-10.94,8.45-21.58,12.93-33.03C430.47,801.98,408.22,803.41,385.98,804.88z M413.92,722.32c-1.32,2.55-1.99,3.61-2.39,4.73
		c-3.26,8.4-6.26,16.85-9.72,25.2c-1.22,2.9-0.51,4.22,1.99,5.85c14.96,9.77,29.78,19.75,44.69,29.57c0.81,0.56,1.78,0.81,3.77,1.68
		C439.37,766.76,427.01,745.23,413.92,722.32z M148.88,787.78c-0.31-0.31-0.61-0.56-0.87-0.87c-19.09,10.08-38.18,20.16-58.18,30.69
		c9.62,4.73,18.27,8.91,26.88,13.29c11.25,5.75,9.93,5.45,14.96-5.4C137.48,812.97,143.13,800.35,148.88,787.78z M347.04,718.76
		c-0.1,0.46-0.2,0.92-0.31,1.37c16.54,10.99,33.09,21.94,49.78,33.03c3.87-10.13,7.53-19.55,11.05-29.01
		c1.53-4.12,0.31-5.8-4.17-5.75c-6.72,0.05-13.44,0.31-20.16,0.36C371.22,718.81,359.1,718.76,347.04,718.76z M153.26,792.41
		c-0.41-0.05-0.81-0.1-1.22-0.15c-6.11,13.34-12.22,26.67-18.32,40.01c-0.25,0.56-0.76,1.53-0.56,1.78
		c3.16,3.61,1.58,9.26,6.92,12.42c8.09,4.73,15.17,11.15,23.82,17.66C160.18,839.24,156.72,815.83,153.26,792.41z M242.69,676.76
		c-10.74,16.64-20.92,32.37-31.66,49.02c16.08-1.73,31-3.36,46.68-5.04C252.72,706.18,247.88,692.03,242.69,676.76z M273.69,752.35
		c19.6-11.81,38.23-23.06,56.81-34.31c-0.1-0.2-0.2-0.41-0.36-0.56c-21.94,2.44-43.88,4.84-66.17,7.28
		C267.33,734.28,270.38,742.99,273.69,752.35z M265.04,757.29c-18.78-7.99-36.65-15.63-55.74-23.77
		c6.87,13.44,12.93,25.86,19.6,37.97c0.81,1.48,5.19,2.6,6.87,1.73C245.39,768.49,254.71,763.04,265.04,757.29z M311.1,885.87
		c0.25,0,0.56-0.05,0.81-0.05c-2.55-23.06-5.09-46.07-7.79-70.19c-5.8,8.81-10.84,16.64-16.08,24.33c-2.9,4.22-1.73,9.52,0,12.42
		C295.07,863.93,303.32,874.77,311.1,885.87z M108.98,874.67c5.34-10.54,10.33-19.9,14.81-29.47c1.32-2.8,0-5.6-3.21-7.18
		c-9.82-4.78-19.6-9.67-29.42-14.46c-0.92-0.46-1.99-0.61-3.77-1.17C94.67,840,101.65,856.85,108.98,874.67z M388.83,812.67
		c-0.2,0.25-0.36,0.51-0.56,0.76c7.84,10.38,16.44,20.36,23.36,31.36c5.09,8.09,10.94,9.47,19.04,6.57
		c1.32-0.46,3.26-0.76,3.72-1.73c1.78-3.77,3.1-7.74,4.68-11.86C421.97,829.26,405.42,820.97,388.83,812.67z M215.41,730.06
		c0.31,0.56,0.36,0.97,0.56,1.07c16.29,7.02,32.58,14.1,48.97,21.02c3.05,1.32,3.46-0.61,2.65-3c-2.44-7.23-4.89-14.46-7.58-21.58
		c-0.36-0.92-2.14-1.99-3.16-1.88C243.1,727.05,229.31,728.58,215.41,730.06z M202.63,847.49c-0.31,0.2-0.56,0.41-0.87,0.61
		c1.02,3.05,2.09,6.06,3.1,9.11c4.63,13.23,9.21,26.47,13.85,39.7c1.88,5.29,2.65,5.5,6.97,1.78c1.63-1.37,3.16-2.85,4.78-4.22
		c8.5-7.28,8.5-7.28,0.97-15.52C221.82,868.41,212.2,857.92,202.63,847.49z M283.16,854c-0.41,0.1-0.76,0.2-1.17,0.31
		c-1.58,9.62-3.16,19.29-4.78,28.91c-1.12,6.36,1.58,9.52,7.99,9.42c5.4-0.1,10.84-0.05,16.24-0.2c2.49-0.05,4.94-0.51,7.99-0.87
		C300.31,878.59,291.71,866.32,283.16,854z M279.9,897.83c12.32,12.78,24.08,24.89,35.78,37.06c0.36-10.54-0.2-20.46-0.97-30.39
		c-0.25-3.41-4.78-8.09-7.69-7.94C298.23,896.81,289.47,897.37,279.9,897.83z M377.84,864.69c0.97,0.81,1.22,1.22,1.63,1.43
		c11.61,5.29,23.11,10.79,34.87,15.63c2.09,0.87,6.31-0.1,7.74-1.78c2.04-2.39,3.97-6.77,3.05-9.26c-1.58-4.28-4.89-8.25-8.45-11.2
		c-1.58-1.32-5.55,0.1-8.4,0.41c-2.95,0.31-5.85,0.76-8.75,1.22C392.49,862.25,385.47,863.42,377.84,864.69z M406.14,907.85
		c1.12-1.02,1.43-1.17,1.58-1.43c2.29-3.56,4.58-7.18,6.87-10.74c2.85-4.53,1.99-7.53-3.05-9.82c-10.99-5.04-21.99-9.98-32.98-14.96
		c-0.92-0.41-1.93-0.56-3.92-1.12c8.81,11.55,16.8,22.24,25.09,32.78C401.4,904.7,404.05,906.17,406.14,907.85z M352.03,927.04
		c-11.3-8.81-21.68-16.95-32.73-25.6c0.71,11.45,1.12,21.84,2.19,32.17c0.15,1.27,4.02,3.56,5.45,3.1
		C335.03,934.02,342.87,930.66,352.03,927.04z M370.56,872.12c-0.36,0.15-0.71,0.31-1.07,0.46c0.97,10.03,1.58,20.11,3.26,29.98
		c0.41,2.49,3.87,5.8,6.41,6.31c6.11,1.22,12.52,1.02,18.78,1.43c0.25-0.41,0.51-0.76,0.76-1.17
		C389.29,896.81,379.92,884.44,370.56,872.12z M462.69,851.1c-4.73,0.76-8.4,1.53-12.11,1.99c-13.9,1.68-13.95,1.63-18.22,14.96
		c-0.36,1.12-0.51,2.75,0.05,3.56c2.65,3.87,5.6,7.53,8.86,11.86C448.43,872.48,455.26,862.2,462.69,851.1z M248.55,884.19
		c7.23,2.49,13.54,4.78,19.95,6.72c0.76,0.2,2.9-1.43,3.05-2.44c1.99-11.05,3.66-22.14,5.45-33.24c-0.31-0.15-0.61-0.31-0.87-0.46
		C267.28,864.23,258.37,873.7,248.55,884.19z M445.08,835.52c4.38,2.19,8.35,4.33,12.47,6.21c1.32,0.61,3.46,1.27,4.22,0.66
		c0.97-0.76,1.48-2.9,1.22-4.33c-1.63-10.84-3.46-21.58-5.19-32.42c-0.31-0.05-0.56-0.1-0.87-0.2
		C453.07,815.37,449.15,825.24,445.08,835.52z M203.7,901.39c0.2-0.25,0.46-0.51,0.66-0.76c-11.05-8.35-22.14-16.7-34.05-25.76
		c0.66,4.53,0.25,8.2,1.78,10.84c1.99,3.46,4.84,7.43,8.3,8.81C187.77,897.62,195.86,899.2,203.7,901.39z M326.68,942.11
		c24.03,5.75,22.8,2.39,26.26-10.49C344.44,935.04,336.25,938.34,326.68,942.11z M358.29,933.76c-7.43,13.69-3.51,15.78,8.45,17.87
		C363.99,945.72,361.24,940.02,358.29,933.76z M330.7,947.81c-0.1,0.25-0.25,0.56-0.36,0.81c3.41,3,6.67,6.11,10.23,8.91
		c1.22,0.97,3,1.12,4.53,1.68c0.2-1.73,1.02-3.61,0.51-5.09c-0.87-2.29-1.88-4.68-5.34-4.68
		C337.06,949.44,333.86,948.37,330.7,947.81z M439.32,850.13c6.06-1.02,11.55-1.88,18.48-3.05c-5.7-2.8-9.98-4.84-14.56-7.08
		C441.87,843.62,440.75,846.57,439.32,850.13z M365.67,958.2c0-0.31,0.05-0.61,0.05-0.92c-1.43-0.61-2.85-1.48-4.33-1.68
		c-3-0.51-6.16-1.07-9.11-0.71c-0.92,0.1-1.48,3.16-2.19,4.89c1.37,0.25,2.85,0.92,4.17,0.71
		C358.09,959.93,361.85,959.01,365.67,958.2z M428.94,874.97c-1.17,4.53-1.99,7.64-2.85,10.99c4.12,0,7.23,0,11.1,0
		C434.44,882.25,432.15,879.2,428.94,874.97z M428.02,865.96c1.43-3.77,2.55-6.57,3.82-9.93c-3.46,0.61-6.36,1.12-9.93,1.73
		C424.16,860.72,425.83,863.01,428.02,865.96z"/>
</g>
<g>
	<g>
		<g>
			
				<linearGradient id="SVGID_9_" gradientUnits="userSpaceOnUse" x1="647.48" y1="-71.3709" x2="1699.0244" y2="-71.3709" gradientTransform="matrix(1 0 0 1 0 1002.6809)">
				<stop  offset="0" style="stop-color:#4457A6"/>
				<stop  offset="1" style="stop-color:#CB509D"/>
			</linearGradient>
			<path class="st7" d="M671.44,977.22c1.19,0.73,2.28,1.61,3.37,2.54c3.06,3.16,4.61,6.95,4.61,11.3s-1.56,8.09-4.72,11.25
				s-6.89,4.72-11.25,4.72s-8.09-1.55-11.25-4.72c-3.16-3.16-4.72-6.89-4.72-11.25c0-4.35,1.61-8.14,4.77-11.3
				c0.93-0.93,2.02-1.81,3.16-2.54V839.7l15.91,15.91l71.69,71.69l55.78,55.31V869.5c-1.19-0.73-2.23-1.66-3.16-2.7
				c-3.16-3.06-4.77-6.79-4.77-11.14s1.56-8.09,4.72-11.25c3.11-3.11,6.89-4.72,11.25-4.72c4.35,0,8.09,1.55,11.25,4.72
				c3.11,3.11,4.72,6.89,4.72,11.25c0,4.35-1.56,8.09-4.61,11.14c-1.09,1.09-2.18,1.97-3.37,2.7v153.43l-10.52-10.52v0.16
				l-61.17-61.84v0.47l-71.69-72.16V977.22z"/>
			
				<linearGradient id="SVGID_10_" gradientUnits="userSpaceOnUse" x1="647.5278" y1="-75.1859" x2="1699.072" y2="-75.1859" gradientTransform="matrix(1 0 0 1 0 1002.6809)">
				<stop  offset="0" style="stop-color:#4457A6"/>
				<stop  offset="1" style="stop-color:#CB509D"/>
			</linearGradient>
			<path class="st8" d="M928.44,919.37c0.73-1.19,1.66-2.28,2.7-3.37c3.06-3.06,6.79-4.61,11.14-4.61s8.09,1.55,11.25,4.72
				c3.11,3.11,4.72,6.89,4.72,11.25c0,4.35-1.55,8.09-4.72,11.25c-3.11,3.11-6.89,4.72-11.25,4.72c-4.35,0-8.09-1.61-11.14-4.77
				c-1.09-0.93-1.97-2.02-2.7-3.16h-81.75v79.67h113.62c0.73-1.19,1.66-2.28,2.7-3.37c3.06-3.06,6.79-4.61,11.14-4.61
				s8.09,1.55,11.25,4.72c3.16,3.16,4.72,6.89,4.72,11.25s-1.55,8.09-4.72,11.25c-3.16,3.16-6.89,4.72-11.25,4.72
				s-8.09-1.61-11.14-4.77c-1.09-0.93-1.97-2.02-2.7-3.16H830.78V823.94H968.3c0.73-1.19,1.66-2.28,2.7-3.37
				c3.06-3.06,6.79-4.61,11.14-4.61s8.09,1.55,11.25,4.72c3.11,3.11,4.72,6.89,4.72,11.25s-1.55,8.09-4.72,11.25
				c-3.11,3.11-6.89,4.72-11.25,4.72c-4.35,0-8.09-1.61-11.14-4.77c-1.09-0.93-1.97-2.02-2.7-3.16H846.74v79.67h81.69v-0.27H928.44z
				"/>
			
				<linearGradient id="SVGID_11_" gradientUnits="userSpaceOnUse" x1="647.5278" y1="-91.2709" x2="1699.072" y2="-91.2709" gradientTransform="matrix(1 0 0 1 0 1002.6809)">
				<stop  offset="0" style="stop-color:#4457A6"/>
				<stop  offset="1" style="stop-color:#CB509D"/>
			</linearGradient>
			<path class="st9" d="M1005.98,821.71c-1.19-0.73-2.23-1.66-3.16-2.7c-3.16-3.06-4.77-6.79-4.77-11.14s1.55-8.09,4.72-11.25
				c3.16-3.16,6.89-4.72,11.25-4.72s8.09,1.55,11.25,4.72c3.16,3.16,4.72,6.89,4.72,11.25c0,4.35-1.56,8.09-4.61,11.14
				c-1.09,1.09-2.18,1.97-3.37,2.7v193.24h127.46V869.5c-1.19-0.73-2.23-1.66-3.16-2.7c-3.16-3.06-4.77-6.79-4.77-11.14
				s1.56-8.09,4.72-11.25c3.11-3.11,6.89-4.72,11.25-4.72c4.35,0,8.09,1.55,11.25,4.72c3.11,3.11,4.72,6.89,4.72,11.25
				c0,4.35-1.55,8.09-4.61,11.14c-1.09,1.09-2.18,1.97-3.37,2.7v161.42h-159.34V821.71H1005.98z"/>
			
				<linearGradient id="SVGID_12_" gradientUnits="userSpaceOnUse" x1="647.5" y1="-55.4509" x2="1699" y2="-55.4509" gradientTransform="matrix(1 0 0 1 0 1002.6809)">
				<stop  offset="0" style="stop-color:#4457A6"/>
				<stop  offset="1" style="stop-color:#CB509D"/>
			</linearGradient>
			<path class="st10" d="M1197.21,1009.04c1.19,0.73,2.28,1.61,3.37,2.54c3.06,3.16,4.61,6.95,4.61,11.3
				c0,4.35-1.55,8.09-4.72,11.25s-6.89,4.72-11.25,4.72c-4.35,0-8.09-1.55-11.25-4.72c-3.16-3.16-4.72-6.89-4.72-11.25
				s1.61-8.14,4.77-11.3c0.93-0.93,2.02-1.81,3.16-2.54V823.73h159.34v47.79l-55.78,55.93l55.78,55.62v57.85
				c1.19,0.73,2.28,1.61,3.37,2.54c3.06,3.16,4.61,6.95,4.61,11.3s-1.56,8.09-4.72,11.25c-3.11,3.11-6.89,4.72-11.25,4.72
				c-4.35,0-8.09-1.56-11.25-4.72c-3.11-3.11-4.72-6.89-4.72-11.25c0-4.35,1.61-8.14,4.77-11.3c0.93-0.93,2.02-1.81,3.16-2.54
				v-49.87l-63.71-63.71l63.71-63.71v-23.9h-127.46v169.3h0.18V1009.04z"/>
			
				<linearGradient id="SVGID_13_" gradientUnits="userSpaceOnUse" x1="647.4995" y1="-63.4059" x2="1699.0002" y2="-63.4059" gradientTransform="matrix(1 0 0 1 0 1002.6809)">
				<stop  offset="0" style="stop-color:#4457A6"/>
				<stop  offset="1" style="stop-color:#CB509D"/>
			</linearGradient>
			<path class="st11" d="M1372.46,1009.04c1.19,0.73,2.28,1.61,3.37,2.54c3.06,3.16,4.61,6.95,4.61,11.3
				c0,4.35-1.56,8.09-4.72,11.25c-3.16,3.16-6.89,4.72-11.25,4.72s-8.09-1.55-11.25-4.72s-4.72-6.89-4.72-11.25s1.61-8.14,4.77-11.3
				c0.93-0.93,2.02-1.81,3.16-2.54V887.49l79.67-79.67l79.67,79.67v153.43c1.19,0.73,2.28,1.61,3.37,2.54
				c3.06,3.16,4.61,6.95,4.61,11.3c0,4.35-1.56,8.09-4.72,11.25c-3.11,3.11-6.89,4.72-11.25,4.72c-4.35,0-8.09-1.55-11.25-4.72
				c-3.11-3.11-4.72-6.89-4.72-11.25c0-4.35,1.61-8.14,4.77-11.3c0.93-0.93,2.02-1.81,3.16-2.54V896.09l-63.71-64.38l-63.71,64.38
				v112.95L1372.46,1009.04L1372.46,1009.04z"/>
			
				<linearGradient id="SVGID_14_" gradientUnits="userSpaceOnUse" x1="647.5278" y1="-91.3009" x2="1699.072" y2="-91.3009" gradientTransform="matrix(1 0 0 1 0 1002.6809)">
				<stop  offset="0" style="stop-color:#4457A6"/>
				<stop  offset="1" style="stop-color:#CB509D"/>
			</linearGradient>
			<path class="st12" d="M1531.76,821.71c-1.19-0.73-2.23-1.66-3.16-2.7c-3.16-3.06-4.77-6.79-4.77-11.14s1.56-8.09,4.72-11.25
				c3.16-3.16,6.89-4.72,11.25-4.72s8.09,1.55,11.25,4.72c3.16,3.16,4.72,6.89,4.72,11.25c0,4.35-1.55,8.09-4.61,11.14
				c-1.09,1.09-2.18,1.97-3.37,2.7v193.24h127.46v-25.97c-1.19-0.73-2.23-1.66-3.16-2.7c-3.16-3.06-4.77-6.79-4.77-11.14
				c0-4.35,1.56-8.09,4.72-11.25c3.11-3.11,6.89-4.72,11.25-4.72c4.35,0,8.09,1.56,11.25,4.72c3.11,3.11,4.72,6.89,4.72,11.25
				c0,4.35-1.55,8.09-4.61,11.14c-1.09,1.09-2.18,1.97-3.37,2.7v41.88h-159.34V821.71H1531.76z"/>
		</g>
	</g>
	<g>
		<g>
			
				<linearGradient id="SVGID_15_" gradientUnits="userSpaceOnUse" x1="554.55" y1="226.5291" x2="1980.5095" y2="226.5291" gradientTransform="matrix(1 0 0 1 0 1002.6809)">
				<stop  offset="0" style="stop-color:#4457A6"/>
				<stop  offset="1" style="stop-color:#CB509D"/>
			</linearGradient>
			<path class="st13" d="M616.18,1328.87c-0.73,1.19-1.61,2.23-2.54,3.16c-3.16,3.21-6.95,4.77-11.3,4.77s-8.09-1.56-11.25-4.72
				c-3.11-3.11-4.72-6.89-4.72-11.25c0-4.35,1.56-8.09,4.72-11.25c3.11-3.11,6.89-4.72,11.25-4.72s8.14,1.55,11.3,4.61
				c0.93,1.09,1.81,2.18,2.54,3.37h81.75v-79.67H554.55v-111.55h159.34v50.02c1.19,0.73,2.28,1.61,3.37,2.54
				c3.06,3.16,4.61,6.95,4.61,11.3c0,4.35-1.56,8.09-4.72,11.25c-3.11,3.11-6.89,4.72-11.25,4.72s-8.09-1.56-11.25-4.72
				c-3.11-3.11-4.72-6.89-4.72-11.25c0-4.35,1.61-8.14,4.77-11.3c0.93-0.93,2.02-1.81,3.16-2.54v-33.95H570.41v79.67h143.38v111.55
				h-97.61V1328.87z"/>
			
				<linearGradient id="SVGID_16_" gradientUnits="userSpaceOnUse" x1="554.54" y1="218.5692" x2="1980.4995" y2="218.5692" gradientTransform="matrix(1 0 0 1 0 1002.6809)">
				<stop  offset="0" style="stop-color:#4457A6"/>
				<stop  offset="1" style="stop-color:#CB509D"/>
			</linearGradient>
			<path class="st14" d="M729.8,1175.44c-1.19-0.73-2.23-1.66-3.16-2.7c-3.16-3.06-4.77-6.79-4.77-11.14s1.56-8.09,4.72-11.25
				c3.11-3.11,6.89-4.72,11.25-4.72s8.09,1.55,11.25,4.72c3.11,3.11,4.72,6.89,4.72,11.25s-1.56,8.09-4.61,11.14
				c-1.09,1.09-2.18,1.97-3.37,2.7v137.52h127.46V1137.7h-81.75c-0.73,1.19-1.61,2.23-2.54,3.16c-3.16,3.21-6.95,4.77-11.3,4.77
				s-8.09-1.56-11.25-4.72c-3.11-3.11-4.72-6.89-4.72-11.25s1.56-8.09,4.72-11.25c3.11-3.11,6.89-4.72,11.25-4.72
				s8.14,1.56,11.3,4.61c0.93,1.09,1.81,2.18,2.54,3.37h97.66v207.14H729.85v-153.38L729.8,1175.44L729.8,1175.44z"/>
			
				<linearGradient id="SVGID_17_" gradientUnits="userSpaceOnUse" x1="554.5399" y1="206.6991" x2="1980.4994" y2="206.6991" gradientTransform="matrix(1 0 0 1 0 1002.6809)">
				<stop  offset="0" style="stop-color:#4457A6"/>
				<stop  offset="1" style="stop-color:#CB509D"/>
			</linearGradient>
			<path class="st15" d="M905.06,1119.71c-1.19-0.73-2.23-1.66-3.16-2.7c-3.16-3.06-4.77-6.79-4.77-11.14s1.55-8.09,4.72-11.25
				c3.16-3.16,6.89-4.72,11.25-4.72c4.35,0,8.09,1.56,11.25,4.72c3.16,3.16,4.72,6.89,4.72,11.25c0,4.35-1.56,8.09-4.61,11.14
				c-1.09,1.09-2.18,1.97-3.37,2.7v193.24h127.46v-25.97c-1.19-0.73-2.23-1.66-3.16-2.7c-3.16-3.06-4.77-6.79-4.77-11.14
				s1.56-8.09,4.72-11.25c3.11-3.11,6.89-4.72,11.25-4.72c4.35,0,8.09,1.56,11.25,4.72c3.11,3.11,4.72,6.89,4.72,11.25
				c0,4.35-1.56,8.09-4.61,11.14c-1.09,1.09-2.18,1.97-3.37,2.7v41.88H905.22V1119.7h-0.16V1119.71z"/>
			
				<linearGradient id="SVGID_18_" gradientUnits="userSpaceOnUse" x1="554.5399" y1="206.7291" x2="1980.4994" y2="206.7291" gradientTransform="matrix(1 0 0 1 0 1002.6809)">
				<stop  offset="0" style="stop-color:#4457A6"/>
				<stop  offset="1" style="stop-color:#CB509D"/>
			</linearGradient>
			<path class="st16" d="M1080.32,1119.71c-1.19-0.73-2.23-1.66-3.16-2.7c-3.16-3.06-4.77-6.79-4.77-11.14s1.56-8.09,4.72-11.25
				c3.16-3.16,6.89-4.72,11.25-4.72s8.09,1.56,11.25,4.72c3.16,3.16,4.72,6.89,4.72,11.25c0,4.35-1.55,8.09-4.61,11.14
				c-1.09,1.09-2.18,1.97-3.37,2.7v193.24h127.46V1167.5c-1.19-0.73-2.23-1.66-3.16-2.7c-3.16-3.06-4.77-6.79-4.77-11.14
				s1.56-8.09,4.72-11.25c3.11-3.11,6.89-4.72,11.25-4.72c4.35,0,8.09,1.56,11.25,4.72c3.11,3.11,4.72,6.89,4.72,11.25
				c0,4.35-1.56,8.09-4.61,11.14c-1.09,1.09-2.18,1.97-3.37,2.7v161.42h-159.5v-209.21H1080.32z"/>
			
				<linearGradient id="SVGID_19_" gradientUnits="userSpaceOnUse" x1="554.5399" y1="238.5342" x2="1980.4994" y2="238.5342" gradientTransform="matrix(1 0 0 1 0 1002.6809)">
				<stop  offset="0" style="stop-color:#4457A6"/>
				<stop  offset="1" style="stop-color:#CB509D"/>
			</linearGradient>
			<path class="st17" d="M1343.18,1338.93c1.19,0.73,2.28,1.61,3.37,2.54c3.06,3.21,4.61,6.95,4.61,11.3
				c0,4.35-1.56,8.09-4.72,11.25c-3.11,3.11-6.89,4.72-11.25,4.72c-4.35,0-8.09-1.55-11.25-4.72c-3.16-3.16-4.72-6.89-4.72-11.25
				c0-4.35,1.61-8.14,4.77-11.3c0.93-0.93,2.02-1.81,3.16-2.54V1137.7h-49.87c-0.73,1.19-1.61,2.23-2.54,3.16
				c-3.16,3.21-6.95,4.77-11.3,4.77c-4.35,0-8.09-1.56-11.25-4.72c-3.11-3.11-4.72-6.89-4.72-11.25s1.55-8.09,4.72-11.25
				c3.11-3.11,6.89-4.72,11.25-4.72s8.14,1.56,11.3,4.61c0.93,1.09,1.81,2.18,2.54,3.37h115.65c0.73-1.19,1.66-2.28,2.7-3.37
				c3.06-3.06,6.79-4.61,11.14-4.61s8.09,1.56,11.25,4.72c3.11,3.11,4.72,6.89,4.72,11.25s-1.56,8.09-4.72,11.25
				c-3.11,3.11-6.89,4.72-11.25,4.72c-4.35,0-8.09-1.61-11.14-4.77c-1.09-0.93-1.97-2.02-2.7-3.16h-49.87v201.23L1343.18,1338.93
				L1343.18,1338.93z"/>
			
				<linearGradient id="SVGID_20_" gradientUnits="userSpaceOnUse" x1="554.5399" y1="226.6442" x2="1980.4994" y2="226.6442" gradientTransform="matrix(1 0 0 1 0 1002.6809)">
				<stop  offset="0" style="stop-color:#4457A6"/>
				<stop  offset="1" style="stop-color:#CB509D"/>
			</linearGradient>
			<path class="st18" d="M1446.74,1338.93c1.19,0.73,2.28,1.61,3.37,2.54c3.06,3.21,4.61,6.95,4.61,11.3
				c0,4.35-1.55,8.09-4.72,11.25c-3.16,3.16-6.89,4.72-11.25,4.72s-8.09-1.55-11.25-4.72c-3.16-3.16-4.72-6.89-4.72-11.25
				c0-4.35,1.61-8.14,4.77-11.3c0.93-0.93,2.02-1.81,3.16-2.54v-219.21c-1.19-0.73-2.23-1.66-3.16-2.7
				c-3.16-3.06-4.77-6.79-4.77-11.14s1.56-8.09,4.72-11.25c3.16-3.16,6.89-4.72,11.25-4.72s8.09,1.56,11.25,4.72
				c3.16,3.16,4.72,6.89,4.72,11.25c0,4.35-1.55,8.09-4.61,11.14c-1.09,1.09-2.18,1.97-3.37,2.7V1338.93z"/>
			
				<linearGradient id="SVGID_21_" gradientUnits="userSpaceOnUse" x1="554.5399" y1="218.5692" x2="1980.4994" y2="218.5692" gradientTransform="matrix(1 0 0 1 0 1002.6809)">
				<stop  offset="0" style="stop-color:#4457A6"/>
				<stop  offset="1" style="stop-color:#CB509D"/>
			</linearGradient>
			<path class="st19" d="M1462.71,1175.44c-1.19-0.73-2.23-1.66-3.16-2.7c-3.16-3.06-4.77-6.79-4.77-11.14s1.55-8.09,4.72-11.25
				c3.11-3.11,6.89-4.72,11.25-4.72s8.09,1.55,11.25,4.72c3.11,3.11,4.72,6.89,4.72,11.25s-1.56,8.09-4.61,11.14
				c-1.09,1.09-2.18,1.97-3.37,2.7v137.52h127.46V1137.7h-81.75c-0.73,1.19-1.61,2.23-2.54,3.16c-3.16,3.21-6.95,4.77-11.3,4.77
				c-4.35,0-8.09-1.56-11.25-4.72c-3.11-3.11-4.72-6.89-4.72-11.25s1.55-8.09,4.72-11.25c3.11-3.11,6.89-4.72,11.25-4.72
				s8.14,1.56,11.3,4.61c0.93,1.09,1.81,2.18,2.54,3.37h97.66v207.14h-159.34v-153.38L1462.71,1175.44L1462.71,1175.44z"/>
			
				<linearGradient id="SVGID_22_" gradientUnits="userSpaceOnUse" x1="554.5399" y1="226.6141" x2="1980.4994" y2="226.6141" gradientTransform="matrix(1 0 0 1 0 1002.6809)">
				<stop  offset="0" style="stop-color:#4457A6"/>
				<stop  offset="1" style="stop-color:#CB509D"/>
			</linearGradient>
			<path class="st20" d="M1653.88,1275.17c1.19,0.73,2.28,1.61,3.37,2.54c3.06,3.16,4.61,6.95,4.61,11.3
				c0,4.35-1.56,8.09-4.72,11.25c-3.11,3.16-6.89,4.72-11.25,4.72c-4.35,0-8.09-1.56-11.25-4.72c-3.11-3.11-4.72-6.89-4.72-11.25
				c0-4.35,1.61-8.14,4.77-11.3c0.93-0.93,2.02-1.81,3.16-2.54v-137.52l15.91,15.91l71.69,71.69l55.78,55.31v-113.05
				c-1.19-0.73-2.23-1.66-3.16-2.7c-3.16-3.06-4.77-6.79-4.77-11.14s1.56-8.09,4.72-11.25c3.11-3.11,6.89-4.72,11.25-4.72
				c4.35,0,8.09,1.56,11.25,4.72c3.11,3.11,4.72,6.89,4.72,11.25c0,4.35-1.56,8.09-4.61,11.14c-1.09,1.09-2.18,1.97-3.37,2.7v153.43
				l-10.52-10.52v0.16l-61.17-61.79v0.47l-71.69-72.16L1653.88,1275.17L1653.88,1275.17z"/>
			
				<linearGradient id="SVGID_23_" gradientUnits="userSpaceOnUse" x1="554.5399" y1="226.5291" x2="1980.4994" y2="226.5291" gradientTransform="matrix(1 0 0 1 0 1002.6809)">
				<stop  offset="0" style="stop-color:#4457A6"/>
				<stop  offset="1" style="stop-color:#CB509D"/>
			</linearGradient>
			<path class="st21" d="M1874.86,1328.87c-0.73,1.19-1.61,2.23-2.54,3.16c-3.16,3.21-6.95,4.77-11.3,4.77s-8.09-1.56-11.25-4.72
				c-3.11-3.11-4.72-6.89-4.72-11.25c0-4.35,1.56-8.09,4.72-11.25c3.11-3.11,6.89-4.72,11.25-4.72s8.14,1.55,11.3,4.61
				c0.93,1.09,1.81,2.18,2.54,3.37h81.75v-79.67h-143.38v-111.55h159.34v50.02c1.19,0.73,2.28,1.61,3.37,2.54
				c3.06,3.16,4.61,6.95,4.61,11.3c0,4.35-1.56,8.09-4.72,11.25c-3.11,3.11-6.89,4.72-11.25,4.72c-4.35,0-8.09-1.56-11.25-4.72
				c-3.11-3.11-4.72-6.89-4.72-11.25c0-4.35,1.61-8.14,4.77-11.3c0.93-0.93,2.02-1.81,3.16-2.54v-33.95h-127.46v79.67h143.38v111.55
				h-97.61L1874.86,1328.87L1874.86,1328.87z"/>
		</g>
	</g>
</g>
</svg>
