<svg id="Layer_1" data-name="Layer 1" xmlns="http://www.w3.org/2000/svg" viewBox="0 0 1749.2 791.43"><defs><style>.cls-1{fill:#00b7cd;}</style></defs><path class="cls-1" d="M1276.61,692.52q-106.33,0-212.69,0h-8.31c2.44-3.63,5.29-4.35,7.64-5.61,39.43-21.25,77.23-44.91,111.57-73.88,44.48-37.52,77.76-82.79,96.33-138.33a303.83,303.83,0,0,0,13.5-60.68c.13-1.1-.1-2.31,1.69-3.78V424.2q0,129.41,0,258.82C1286.36,693.63,1287.19,692.52,1276.61,692.52Zm360.85-225.36c-33.59.28-67.18,0-100.77,0v0h-99.91c-2,0-4-.1-6,0-3.32.18-4.65-1.37-4.46-4.58.1-1.7,0-3.41,0-5.12q0-60.19,0-120.41c0-10.77-1-9.8,9.42-9.81q44,0,88,0c37.58,0,75.15-.14,112.72.07,33,.18,60.88,22.28,67.39,54.6C1713.66,430.59,1678,466.81,1637.46,467.16Zm59.66,242.91c-12.37,23.16-32.49,35.64-58.88,36.06-33.59.54-67.21.13-100.82.13v.09h-100c-2,0-4-.11-6,0-3.45.21-5.48-.9-5.13-4.77.13-1.41,0-2.85,0-4.27V616c0-1.42.11-2.85,0-4.27-.25-3.31,1.28-4.68,4.51-4.46,1.42.09,2.85,0,4.27,0q100,0,199.94,0c25.61,0,46,10.45,59.6,32.11C1709,662.15,1709.75,686.41,1697.12,710.07Zm125.1-119.18c-11.58-20.95-26.31-39.26-47.16-51.88a3.21,3.21,0,0,1-1.82-2.94c6.73-4.9,13.79-9.74,19.74-15.91,42.62-44.23,59.71-96.91,49.68-157.39-9.11-54.94-37-99.29-81.26-133-37.75-28.72-80.66-42.51-128.11-42.48q-168.76.09-337.54,0a32.5,32.5,0,0,1-3.42,0c-4.24-.45-6.5,1-6,5.66a54.19,54.19,0,0,1,0,6l0,126.47v14.18c-1.91-1.62-1.57-3.14-1.74-4.49a262.82,262.82,0,0,0-21.76-76.9c-24.34-52.68-63.6-91-114-118.53-43.39-23.71-90.19-36-139-41.33-43.47-4.71-86.93-4.82-130.34,1.32-49.07,6.93-95.38,21.88-137.72,47.84-63.26,38.79-107,92.85-127.21,165-.37,1.35-.38,2.87-2.3,3.81-2.9-2.09-4.32-5.56-6.38-8.45-34.8-49.08-80.23-84.21-136.93-104.6-31.15-11.2-63.37-15.92-96.38-15.92q-132.45,0-264.91,0c-12.2,0-10.77-1.45-10.77,11q0,338.4,0,676.79c0,2,.13,4,0,6-.27,3.5.87,5.16,4.74,5.15q65.37-.12,130.74,0c3.21,0,4.76-1.12,4.53-4.46-.14-2,0-4,0-6q0-59.82,0-119.63c0-10.46-1.15-9.78,9.52-9.79q67.08-.06,134.16-.09c45.34-.08,87.75-11.54,127.69-32.8,92.14-49,148.34-146.5,147.56-244.37-.13-17.1.5-34.16,1.47-51.23,1.54-27.06,4.92-53.82,12.08-80,18-65.84,56.69-115.15,117-147.42,41.7-22.31,86.55-33,133.37-35.62,34.17-2,68.32-.78,102.2,4.76,37.7,6.17,73.73,17.15,106.45,37.36,41.53,25.66,72.63,60.17,88.6,107,10.47,30.65,12.69,62.21,9.85,94.39-4.71,53.47-25,100.05-60.27,140.3-17.17,19.6-36.89,36.36-57.92,51.63-35.39,25.71-73.8,46.16-113.17,65-47.9,22.88-91.55,52-129.31,89.52-1.7,1.69-3.86,3.13-4.72,5.75,3.51,1.3,6.64.7,9.69.7q155.94.06,311.9,0,47.85,0,95.7,0c7.58,0,7.66.07,7.68,7.26q.06,30.76,0,61.53c0,1.42,0,2.84-.06,4.27-.08,2-1,3.19-3.08,3.23-1.71,0-3.42.07-5.13.07q-289.26,0-578.51-.05c-2.09,0-4.52.91-6.32-1.11-.07-3.22,2.1-5.33,3.48-7.71A398.91,398.91,0,0,1,756,740.66c44-45.37,94.82-81.69,150.75-110.9,32.33-16.89,64.06-34.75,94-55.64s57.09-44.52,79.23-73.53c37.66-49.35,49.22-104.56,33.25-164.49-13.87-52-47-86.94-98.94-102.8a241.62,241.62,0,0,0-102.21-8.93C845.11,233,796.44,267.76,767.35,329c-13.83,29.11-20,60.36-24.14,92.11-.51,3.93,1.48,4.81,4.6,5.6,17.65,4.47,35.26,9.09,52.89,13.64,1,.26,2.15.75,3.27-.45.61-7.44,1.11-15.09,1.88-22.71,2.62-26.07,9.13-51,22.7-73.64,19.46-32.44,46.92-54.27,85-59.89,30.9-4.55,61.37-1.77,90.48,10.53a88.58,88.58,0,0,1,27,17.72c26.35,25.32,32.64,57.09,28.7,91.74-2.13,18.68-10.09,35.46-20,51.33-15.45,24.87-36.39,44.36-59.78,61.49-28.56,20.91-59,38.8-90.32,55.14-55.09,28.71-106,63.37-151.69,105.58-44.79,41.39-81.6,88.8-108.66,143.6-10.23,20.71-17.76,42.41-24.34,64.75,3.95,1.29,7.64.72,11.26.72q455.88,0,911.78,0c36.73,0,73.47-.06,110.21,0a174.61,174.61,0,0,0,42.35-4.61c72.61-17.93,123.69-61.54,151.13-131C1853.13,696.49,1850.78,642.58,1822.22,590.89ZM400,605.22a125.3,125.3,0,0,1-21.22,2q-67-.08-134.07,0c-7.84,0-7.9-.07-7.91-7.94q0-66.18,0-132.36V339.66c0-1.71,0-3.42,0-5.13.11-7.06.12-7.15,6.93-7.18,13.09-.06,26.18,0,39.28,0,31,0,62.05-.07,93.08,0A139.94,139.94,0,0,1,510.45,428.05C534,507.73,481.94,591.31,400,605.22Z" transform="translate(-96.77 -94.92)"/></svg>